<svg width="16" height="22" viewBox="0 0 16 22" fill="none" xmlns="http://www.w3.org/2000/svg">
<path d="M7.80988 9.93201C7.70664 9.92168 7.58276 9.92168 7.4692 9.93201C6.28427 9.89178 5.16152 9.39192 4.33872 8.53828C3.51592 7.68465 3.05768 6.54428 3.06104 5.35867C3.06104 2.8294 5.10511 0.775012 7.6447 0.775012C8.24596 0.764166 8.84347 0.871853 9.4031 1.09192C9.96274 1.31199 10.4736 1.64014 10.9064 2.05762C11.3392 2.47511 11.6856 2.97375 11.9257 3.52509C12.1658 4.07643 12.2949 4.66966 12.3058 5.27092C12.3166 5.87218 12.2089 6.46968 11.9889 7.02932C11.7688 7.58896 11.4407 8.09977 11.0232 8.5326C10.6057 8.96542 10.107 9.31177 9.55571 9.55188C9.00437 9.79199 8.41114 9.92116 7.80988 9.93201V9.93201Z" stroke="#4F4F4F" stroke-width="1.5" stroke-linecap="round" stroke-linejoin="round"/>
<path d="M2.64799 13.7412C0.149692 15.4136 0.149692 18.139 2.64799 19.8011C5.48697 21.7006 10.1429 21.7006 12.9819 19.8011C15.4802 18.1287 15.4802 15.4033 12.9819 13.7412C10.1532 11.8519 5.49729 11.8519 2.64799 13.7412V13.7412Z" stroke="#4F4F4F" stroke-width="1.5" stroke-linecap="round" stroke-linejoin="round"/>
</svg>
