<svg width="23" height="21" viewBox="0 0 23 21" fill="none" xmlns="http://www.w3.org/2000/svg">
<path d="M22.4435 4.22248C22.0866 3.39619 21.5721 2.64741 20.9286 2.01807C20.2847 1.38684 19.5255 0.88522 18.6923 0.540472C17.8283 0.181571 16.9016 -0.00213462 15.966 1.87132e-05C14.6535 1.87132e-05 13.3729 0.359434 12.2601 1.03833C11.9938 1.20073 11.7409 1.37911 11.5013 1.57346C11.2617 1.37911 11.0088 1.20073 10.7425 1.03833C9.62967 0.359434 8.34909 1.87132e-05 7.03656 1.87132e-05C6.09143 1.87132e-05 5.17558 0.181057 4.31032 0.540472C3.47435 0.886576 2.72091 1.38443 2.07396 2.01807C1.42967 2.6467 0.914986 3.39566 0.559091 4.22248C0.189026 5.08241 0 5.99559 0 6.9354C0 7.82195 0.181039 8.74578 0.540454 9.68559C0.841298 10.471 1.2726 11.2856 1.8237 12.1083C2.69695 13.4102 3.89766 14.768 5.38857 16.1444C7.85922 18.426 10.3059 20.0021 10.4097 20.066L11.0407 20.4707C11.3203 20.6491 11.6797 20.6491 11.9592 20.4707L12.5902 20.066C12.694 19.9995 15.138 18.426 17.6114 16.1444C19.1023 14.768 20.303 13.4102 21.1762 12.1083C21.7273 11.2856 22.1613 10.471 22.4595 9.68559C22.8189 8.74578 22.9999 7.82195 22.9999 6.9354C23.0026 5.99559 22.8136 5.08241 22.4435 4.22248Z" fill="#EB5757"/>
</svg>
