<svg width="92" height="20" viewBox="0 0 92 20" fill="none" xmlns="http://www.w3.org/2000/svg">
<path d="M17.7363 6.89649L12.7773 6.17579L10.5605 1.68165C10.5 1.5586 10.4003 1.45899 10.2773 1.39844C9.9687 1.2461 9.5937 1.37305 9.4394 1.68165L7.2226 6.17579L2.26362 6.89649C2.1269 6.91602 2.0019 6.98048 1.9062 7.07813C1.7905 7.19705 1.72674 7.35704 1.72894 7.52294C1.73113 7.68884 1.79911 7.84709 1.91791 7.9629L5.50581 11.4609L4.65815 16.4004C4.63827 16.5153 4.65099 16.6335 4.69485 16.7415C4.73872 16.8496 4.81198 16.9432 4.90633 17.0117C5.00068 17.0802 5.11234 17.1209 5.22866 17.1292C5.34497 17.1375 5.46128 17.1131 5.5644 17.0586L9.99995 14.7266L14.4355 17.0586C14.5566 17.1231 14.6972 17.1445 14.832 17.1211C15.1718 17.0625 15.4003 16.7402 15.3418 16.4004L14.4941 11.4609L18.082 7.9629C18.1796 7.8672 18.2441 7.7422 18.2636 7.60548C18.3164 7.26368 18.0781 6.94727 17.7363 6.89649Z" fill="#FFCE31"/>
<path d="M41.7363 6.89649L36.7773 6.17579L34.5605 1.68165C34.5 1.5586 34.4003 1.45899 34.2773 1.39844C33.9687 1.2461 33.5937 1.37305 33.4394 1.68165L31.2226 6.17579L26.2636 6.89649C26.1269 6.91602 26.0019 6.98048 25.9062 7.07813C25.7905 7.19705 25.7267 7.35704 25.7289 7.52294C25.7311 7.68884 25.7991 7.84709 25.9179 7.9629L29.5058 11.4609L28.6582 16.4004C28.6383 16.5153 28.651 16.6335 28.6949 16.7415C28.7387 16.8496 28.812 16.9432 28.9063 17.0117C29.0007 17.0802 29.1123 17.1209 29.2287 17.1292C29.345 17.1375 29.4613 17.1131 29.5644 17.0586L34 14.7266L38.4355 17.0586C38.5566 17.1231 38.6972 17.1445 38.832 17.1211C39.1718 17.0625 39.4003 16.7402 39.3418 16.4004L38.4941 11.4609L42.082 7.9629C42.1796 7.8672 42.2441 7.7422 42.2636 7.60548C42.3164 7.26368 42.0781 6.94727 41.7363 6.89649Z" fill="#FFCE31"/>
<path d="M65.7363 6.89649L60.7773 6.17579L58.5605 1.68165C58.5 1.5586 58.4003 1.45899 58.2773 1.39844C57.9687 1.2461 57.5937 1.37305 57.4394 1.68165L55.2226 6.17579L50.2636 6.89649C50.1269 6.91602 50.0019 6.98048 49.9062 7.07813C49.7905 7.19705 49.7267 7.35704 49.7289 7.52294C49.7311 7.68884 49.7991 7.84709 49.9179 7.9629L53.5058 11.4609L52.6582 16.4004C52.6383 16.5153 52.651 16.6335 52.6949 16.7415C52.7387 16.8496 52.812 16.9432 52.9063 17.0117C53.0007 17.0802 53.1123 17.1209 53.2287 17.1292C53.345 17.1375 53.4613 17.1131 53.5644 17.0586L58 14.7266L62.4355 17.0586C62.5566 17.1231 62.6972 17.1445 62.832 17.1211C63.1718 17.0625 63.4003 16.7402 63.3418 16.4004L62.4941 11.4609L66.082 7.9629C66.1796 7.8672 66.2441 7.7422 66.2636 7.60548C66.3164 7.26368 66.0781 6.94727 65.7363 6.89649Z" fill="#FFCE31"/>
<path d="M89.7363 6.89649L84.7773 6.17579L82.5605 1.68165C82.5 1.5586 82.4003 1.45899 82.2773 1.39844C81.9687 1.2461 81.5937 1.37305 81.4394 1.68165L79.2226 6.17579L74.2636 6.89649C74.1269 6.91602 74.0019 6.98048 73.9062 7.07813C73.7905 7.19705 73.7267 7.35704 73.7289 7.52294C73.7311 7.68884 73.7991 7.84709 73.9179 7.9629L77.5058 11.4609L76.6582 16.4004C76.6383 16.5153 76.651 16.6335 76.6949 16.7415C76.7387 16.8496 76.812 16.9432 76.9063 17.0117C77.0007 17.0802 77.1123 17.1209 77.2287 17.1292C77.345 17.1375 77.4613 17.1131 77.5644 17.0586L82 14.7266L86.4355 17.0586C86.5566 17.1231 86.6972 17.1445 86.832 17.1211C87.1718 17.0625 87.4003 16.7402 87.3418 16.4004L86.4941 11.4609L90.082 7.9629C90.1796 7.8672 90.2441 7.7422 90.2636 7.60548C90.3164 7.26368 90.0781 6.94727 89.7363 6.89649Z" fill="#FFCE31"/>
</svg>
