<svg width="18" height="22" viewBox="0 0 18 22" fill="none" xmlns="http://www.w3.org/2000/svg">
<path d="M8.94377 19.6813C6.5739 19.6813 4.20403 19.305 1.95622 18.5523C1.10184 18.2574 0.450892 17.6573 0.166101 16.8741C-0.128861 16.0909 -0.0271502 15.2264 0.440721 14.4534L1.6104 12.5107C1.85451 12.1039 2.07827 11.2902 2.07827 10.8121V7.87268C2.07827 4.08903 5.16012 1.00718 8.94377 1.00718C12.7274 1.00718 15.8093 4.08903 15.8093 7.87268V10.8121C15.8093 11.28 16.033 12.1039 16.2771 12.5209L17.4367 14.4534C17.874 15.1857 17.9554 16.0706 17.6604 16.8741C17.5164 17.2672 17.285 17.6225 16.9837 17.9132C16.6825 18.2039 16.3192 18.4224 15.9212 18.5523C13.6835 19.305 11.3136 19.6813 8.94377 19.6813ZM8.94377 2.53285C6.00432 2.53285 3.60394 4.92306 3.60394 7.87268V10.8121C3.60394 11.5546 3.2988 12.6531 2.92247 13.2939L1.75279 15.2366C1.52903 15.6129 1.468 16.0096 1.60023 16.3452C1.72228 16.691 2.02741 16.9555 2.44443 17.0979C6.66382 18.5218 11.2339 18.5218 15.4533 17.0979C15.8194 16.9758 16.1042 16.7012 16.2365 16.335C16.3687 15.9689 16.3382 15.5722 16.1348 15.2366L14.9651 13.2939C14.5786 12.6328 14.2836 11.5445 14.2836 10.802V7.87268C14.2836 4.92306 11.8934 2.53285 8.94377 2.53285Z" fill="#4F4F4F"/>
<path d="M10.8355 2.80725C10.7643 2.80725 10.6931 2.79707 10.622 2.77673C10.327 2.69536 10.0422 2.63434 9.76758 2.59365C8.90303 2.48177 8.069 2.5428 7.28583 2.77673C7.00103 2.86827 6.6959 2.77673 6.50265 2.56314C6.40636 2.45788 6.34187 2.32748 6.31667 2.18707C6.29147 2.04665 6.30658 1.90197 6.36025 1.76979C6.56276 1.24704 6.91909 0.798008 7.38216 0.482026C7.84524 0.166045 8.39328 -0.00202522 8.95389 1.8418e-05C10.1134 1.8418e-05 11.1305 0.691654 11.5475 1.76979C11.6492 2.04441 11.5984 2.34955 11.4051 2.56314C11.2526 2.72588 11.039 2.80725 10.8355 2.80725Z" fill="#4F4F4F"/>
<path d="M8.94393 22C7.93698 22 6.96056 21.5932 6.24858 20.8812C5.5366 20.1692 5.12976 19.1928 5.12976 18.1858H6.65542C6.65542 18.7859 6.89953 19.3759 7.32672 19.803C7.7539 20.2302 8.34383 20.4743 8.94393 20.4743C10.2051 20.4743 11.2324 19.4471 11.2324 18.1858H12.7581C12.7581 20.2913 11.0493 22 8.94393 22Z" fill="#4F4F4F"/>
</svg>
