<svg width="22" height="22" viewBox="0 0 22 22" fill="none" xmlns="http://www.w3.org/2000/svg">
<path d="M10.4896 20.5751C4.70752 20.5751 0 15.9582 0 10.2875C0 4.61685 4.70752 0 10.4896 0C16.2717 0 20.9792 4.61685 20.9792 10.2875C20.9792 15.9582 16.2717 20.5751 10.4896 20.5751ZM10.4896 1.50549C5.54669 1.50549 1.53506 5.44989 1.53506 10.2875C1.53506 15.1252 5.54669 19.0696 10.4896 19.0696C15.4325 19.0696 19.4441 15.1252 19.4441 10.2875C19.4441 5.44989 15.4325 1.50549 10.4896 1.50549Z" fill="#828282"/>
<path d="M21.235 21.5789C21.0406 21.5789 20.8461 21.5086 20.6926 21.3581L18.6459 19.3508C18.5031 19.2091 18.4231 19.018 18.4231 18.8188C18.4231 18.6197 18.5031 18.4285 18.6459 18.2869C18.9427 17.9958 19.4339 17.9958 19.7307 18.2869L21.7774 20.2942C22.0742 20.5853 22.0742 21.067 21.7774 21.3581C21.6239 21.5086 21.4295 21.5789 21.235 21.5789Z" fill="#828282"/>
</svg>
