<svg width="22" height="20" viewBox="0 0 22 20" fill="none" xmlns="http://www.w3.org/2000/svg">
<path d="M21.2346 4.27822H15.0939" stroke="#EB5757" stroke-width="1.5" stroke-miterlimit="10" stroke-linecap="round" stroke-linejoin="round"/>
<path d="M4.85919 4.27822H0.765356" stroke="#EB5757" stroke-width="1.5" stroke-miterlimit="10" stroke-linecap="round" stroke-linejoin="round"/>
<path d="M8.95305 7.79157C9.42346 7.79157 9.88926 7.70071 10.3239 7.52416C10.7585 7.34761 11.1533 7.08883 11.486 6.76261C11.8186 6.43639 12.0825 6.0491 12.2625 5.62287C12.4425 5.19664 12.5352 4.73981 12.5352 4.27847C12.5352 3.81712 12.4425 3.36029 12.2625 2.93406C12.0825 2.50783 11.8186 2.12054 11.486 1.79432C11.1533 1.4681 10.7585 1.20933 10.3239 1.03278C9.88926 0.856225 9.42346 0.765356 8.95305 0.765356C8.00302 0.765356 7.09189 1.13549 6.42012 1.79432C5.74835 2.45316 5.37095 3.34673 5.37095 4.27847C5.37095 5.2102 5.74835 6.10377 6.42012 6.76261C7.09189 7.42144 8.00302 7.79157 8.95305 7.79157V7.79157Z" stroke="#EB5757" stroke-width="1.5" stroke-miterlimit="10" stroke-linecap="round" stroke-linejoin="round"/>
<path d="M21.2346 15.3196H17.1408" stroke="#EB5757" stroke-width="1.5" stroke-miterlimit="10" stroke-linecap="round" stroke-linejoin="round"/>
<path d="M6.9061 15.3197H0.765356" stroke="#EB5757" stroke-width="1.5" stroke-miterlimit="10" stroke-linecap="round" stroke-linejoin="round"/>
<path d="M13.0469 18.8329C13.9969 18.8329 14.9081 18.4628 15.5798 17.804C16.2516 17.1451 16.629 16.2516 16.629 15.3198C16.629 14.3881 16.2516 13.4945 15.5798 12.8357C14.9081 12.1768 13.9969 11.8067 13.0469 11.8067C12.0969 11.8067 11.1858 12.1768 10.514 12.8357C9.8422 13.4945 9.4648 14.3881 9.4648 15.3198C9.4648 16.2516 9.8422 17.1451 10.514 17.804C11.1858 18.4628 12.0969 18.8329 13.0469 18.8329V18.8329Z" stroke="#EB5757" stroke-width="1.5" stroke-miterlimit="10" stroke-linecap="round" stroke-linejoin="round"/>
</svg>
