<svg width="22" height="20" viewBox="0 0 22 20" fill="none" xmlns="http://www.w3.org/2000/svg">
<path d="M10.3831 2.93065L10.9993 3.76334L11.6164 2.93136C12.5905 1.61815 14.1488 0.767442 15.884 0.767442C18.8274 0.767442 21.2326 3.18773 21.2326 6.20202C21.2326 7.43958 21.0369 8.58102 20.6972 9.64001L20.6957 9.64498C19.8808 12.2457 18.2087 14.3484 16.3947 15.9209C14.5771 17.4965 12.6603 18.5019 11.4329 18.9231L11.4329 18.923L11.4246 18.926C11.346 18.954 11.1921 18.9814 11 18.9814C10.8079 18.9814 10.654 18.954 10.5754 18.926L10.5754 18.9259L10.5671 18.9231C9.33972 18.5019 7.42291 17.4965 5.6053 15.9209C3.79128 14.3484 2.11916 12.2457 1.30434 9.64498L1.30436 9.64497L1.30277 9.64001C0.963083 8.58102 0.767442 7.43958 0.767442 6.20202C0.767442 3.1879 3.17234 0.767712 6.11551 0.767442C6.94367 0.768569 7.76044 0.964335 8.50108 1.33953C9.24189 1.71482 9.88641 2.25943 10.3831 2.93065Z" stroke="#4F4F4F" stroke-width="1.5"/>
</svg>
