<svg width="19" height="18" viewBox="0 0 19 18" fill="none" xmlns="http://www.w3.org/2000/svg">
<path d="M12.4688 9C12.4688 9.74592 12.156 10.4613 11.5992 10.9887C11.0425 11.5162 10.2874 11.8125 9.5 11.8125C8.71264 11.8125 7.95753 11.5162 7.40078 10.9887C6.84403 10.4613 6.53125 9.74592 6.53125 9C6.53125 8.25408 6.84403 7.53871 7.40078 7.01126C7.95753 6.48382 8.71264 6.1875 9.5 6.1875C10.2874 6.1875 11.0425 6.48382 11.5992 7.01126C12.156 7.53871 12.4688 8.25408 12.4688 9Z" fill="#8E8E93"/>
<path d="M0 9C0 9 3.5625 2.8125 9.5 2.8125C15.4375 2.8125 19 9 19 9C19 9 15.4375 15.1875 9.5 15.1875C3.5625 15.1875 0 9 0 9ZM9.5 12.9375C10.6023 12.9375 11.6595 12.5227 12.4389 11.7842C13.2184 11.0458 13.6562 10.0443 13.6562 9C13.6562 7.95571 13.2184 6.95419 12.4389 6.21577C11.6595 5.47734 10.6023 5.0625 9.5 5.0625C8.39769 5.0625 7.34054 5.47734 6.56109 6.21577C5.78164 6.95419 5.34375 7.95571 5.34375 9C5.34375 10.0443 5.78164 11.0458 6.56109 11.7842C7.34054 12.5227 8.39769 12.9375 9.5 12.9375Z" fill="#8E8E93"/>
</svg>
