<svg width="17" height="21" viewBox="0 0 17 21" fill="none" xmlns="http://www.w3.org/2000/svg">
<path d="M8.49997 13.8952C10.7369 13.8952 12.5486 12.1532 12.5486 10.0024V4.64975C12.5486 2.49896 10.7369 0.756913 8.49997 0.756913C6.26308 0.756913 4.4513 2.49896 4.4513 4.64975V10.0024C4.4513 12.1532 6.26308 13.8952 8.49997 13.8952Z" stroke="#828282" stroke-width="1.5" stroke-linecap="round" stroke-linejoin="round"/>
<path d="M0.756913 8.20196V9.85642C0.756913 13.9634 4.22865 17.3015 8.5 17.3015C12.7714 17.3015 16.2431 13.9634 16.2431 9.85642V8.20196" stroke="#828282" stroke-width="1.5" stroke-linecap="round" stroke-linejoin="round"/>
<path d="M7.09311 5.06823C8.00406 4.74707 8.99598 4.74707 9.90693 5.06823" stroke="#828282" stroke-width="1.5" stroke-linecap="round" stroke-linejoin="round"/>
<path d="M7.69036 7.13165C8.22681 6.9954 8.7835 6.9954 9.31995 7.13165" stroke="#828282" stroke-width="1.5" stroke-linecap="round" stroke-linejoin="round"/>
<path d="M8.5 17.3011V20.2207" stroke="#828282" stroke-width="1.5" stroke-linecap="round" stroke-linejoin="round"/>
</svg>
