<svg width="20" height="16" viewBox="0 0 20 16" fill="none" xmlns="http://www.w3.org/2000/svg">
<path d="M19.0476 1.52381H0.761905C0.345397 1.52381 0 1.17841 0 0.761905C0 0.345397 0.345397 0 0.761905 0H19.0476C19.4641 0 19.8095 0.345397 19.8095 0.761905C19.8095 1.17841 19.4641 1.52381 19.0476 1.52381Z" fill="#4F4F4F"/>
<path d="M19.0476 8.88889H0.761905C0.345397 8.88889 0 8.54349 0 8.12698C0 7.71048 0.345397 7.36508 0.761905 7.36508H19.0476C19.4641 7.36508 19.8095 7.71048 19.8095 8.12698C19.8095 8.54349 19.4641 8.88889 19.0476 8.88889Z" fill="#4F4F4F"/>
<path d="M19.0476 16H0.761905C0.345397 16 0 15.6546 0 15.2381C0 14.8216 0.345397 14.4762 0.761905 14.4762H19.0476C19.4641 14.4762 19.8095 14.8216 19.8095 15.2381C19.8095 15.6546 19.4641 16 19.0476 16Z" fill="#4F4F4F"/>
</svg>
